<svg xmlns="http://www.w3.org/2000/svg" viewBox="0 0 64 64">
  
  <rect width="64" height="64" rx="15" fill="#f5ead8"></rect>
  
  <path fill="#d8ddc4" d="M43.2 15.3c6.1 1.9 10.6 7.3 10.2 13.5-.4 6.3-5.6 11-11.5 13.3-5.9 2.3-12.4 2.2-16.7-1.4-4.3-3.6-6.3-10.6-4.4-16.4 1.9-5.8 7.7-10.3 13.7-10.9 3-.3 6.1.4 8.7 1.9z"></path>
  
  <g transform="translate(32 33) rotate(11)">
    <g fill="#c67139">
      <ellipse cx="0" cy="-10.5" rx="4.6" ry="10"></ellipse>
      <ellipse cx="0" cy="-10.5" rx="4.6" ry="10" transform="rotate(60)"></ellipse>
      <ellipse cx="0" cy="-10.5" rx="4.6" ry="10" transform="rotate(120)"></ellipse>
      <ellipse cx="0" cy="-10.5" rx="4.6" ry="10" transform="rotate(180)"></ellipse>
      <ellipse cx="0" cy="-10.5" rx="4.6" ry="10" transform="rotate(240)"></ellipse>
      <ellipse cx="0" cy="-10.5" rx="4.6" ry="10" transform="rotate(300)"></ellipse>
    </g>
    
    <circle r="6.4" fill="#201e1d"></circle>
    <circle r="2.6" fill="#f5ead8"></circle>
  </g>
</svg>